<svg width="26" height="26" viewBox="0 0 26 26" fill="none" xmlns="http://www.w3.org/2000/svg">
<path d="M9.5 22.3333C3.76667 24.1999 3.76667 18.9999 1.5 18.3333M17.5 24.9999V20.3333C17.5 18.9999 17.6333 18.4666 16.8333 17.6666C20.5667 17.2666 24.1667 15.7999 24.1667 9.6666C24.165 8.07322 23.5434 6.54301 22.4333 5.39993C22.954 4.01589 22.906 2.4821 22.3 1.13327C22.3 1.13327 20.8333 0.733268 17.6333 2.8666C14.923 2.16072 12.077 2.16072 9.36667 2.8666C6.16667 0.733268 4.7 1.13327 4.7 1.13327C4.09398 2.4821 4.04604 4.01589 4.56667 5.39993C3.4566 6.54301 2.83496 8.07322 2.83333 9.6666C2.83333 15.7999 6.43333 17.2666 10.1667 17.6666C9.36667 18.4666 9.36667 19.2666 9.5 20.3333V24.9999" stroke="#59BEFF" stroke-width="2" stroke-linecap="round" stroke-linejoin="round"/>
</svg>
