<svg width="20" height="20" viewBox="0 0 20 20" fill="none" xmlns="http://www.w3.org/2000/svg">
<path d="M13.9963 6.14271C14.0808 6.22714 14.1479 6.3274 14.1936 6.43777C14.2394 6.54813 14.2629 6.66643 14.2629 6.7859C14.2629 6.90536 14.2394 7.02366 14.1936 7.13402C14.1479 7.24438 14.0808 7.34465 13.9963 7.42908L11.2854 10.1391L13.7181 12.5709C13.8887 12.7415 13.9845 12.9728 13.9845 13.2141C13.9845 13.4553 13.8887 13.6867 13.7181 13.8573C13.5475 14.0278 13.3162 14.1237 13.0749 14.1237C12.8337 14.1237 12.6024 14.0278 12.4318 13.8573L9.99995 11.4245L7.56813 13.8573C7.39755 14.0278 7.16619 14.1237 6.92495 14.1237C6.68371 14.1237 6.45235 14.0278 6.28177 13.8573C6.11119 13.6867 6.01535 13.4553 6.01535 13.2141C6.01535 12.9728 6.11119 12.7415 6.28177 12.5709L8.7145 10.1391L6.00359 7.42908C5.91912 7.34455 5.85213 7.24422 5.80644 7.13381C5.76076 7.0234 5.73726 6.90507 5.7373 6.78557C5.73735 6.66608 5.76092 6.54777 5.80669 6.43739C5.85246 6.32701 5.91952 6.22672 6.00404 6.14226C6.08856 6.05779 6.1889 5.99081 6.29931 5.94512C6.40972 5.89943 6.52805 5.87593 6.64754 5.87598C6.76704 5.87602 6.88535 5.8996 6.99573 5.94536C7.10611 5.99113 7.2064 6.05819 7.29086 6.14271L9.99995 8.85453L12.7099 6.14362C12.7944 6.0591 12.8946 5.99204 13.005 5.94629C13.1154 5.90055 13.2337 5.877 13.3531 5.877C13.4726 5.877 13.5909 5.90055 13.7013 5.94629C13.8116 5.99204 13.9119 6.05819 13.9963 6.14271Z" fill="#59BEFF"/>
<path fill-rule="evenodd" clip-rule="evenodd" d="M2.72727 0C2.00396 0 1.31026 0.287337 0.7988 0.7988C0.287337 1.31026 0 2.00396 0 2.72727V17.2727C0 17.996 0.287337 18.6897 0.7988 19.2012C1.31026 19.7127 2.00396 20 2.72727 20H17.2727C17.996 20 18.6897 19.7127 19.2012 19.2012C19.7127 18.6897 20 17.996 20 17.2727V2.72727C20 2.00396 19.7127 1.31026 19.2012 0.7988C18.6897 0.287337 17.996 0 17.2727 0H2.72727ZM17.2727 1.81818H2.72727C2.48617 1.81818 2.25494 1.91396 2.08445 2.08445C1.91396 2.25494 1.81818 2.48617 1.81818 2.72727V17.2727C1.81818 17.5138 1.91396 17.7451 2.08445 17.9156C2.25494 18.086 2.48617 18.1818 2.72727 18.1818H17.2727C17.5138 18.1818 17.7451 18.086 17.9156 17.9156C18.086 17.7451 18.1818 17.5138 18.1818 17.2727V2.72727C18.1818 2.48617 18.086 2.25494 17.9156 2.08445C17.7451 1.91396 17.5138 1.81818 17.2727 1.81818Z" fill="#59BEFF"/>
</svg>
